<svg width="18" height="18" viewBox="0 0 18 18" fill="none" xmlns="http://www.w3.org/2000/svg">
<path d="M8.99984 17.1601C4.48784 17.1601 0.839844 13.5121 0.839844 9.00009C0.839844 4.48809 4.48784 0.840088 8.99984 0.840088C13.5118 0.840088 17.1598 4.48809 17.1598 9.00009C17.1598 13.5121 13.5118 17.1601 8.99984 17.1601ZM8.99984 1.80009C5.01584 1.80009 1.79984 5.01609 1.79984 9.00009C1.79984 12.9841 5.01584 16.2001 8.99984 16.2001C12.9838 16.2001 16.1998 12.9841 16.1998 9.00009C16.1998 5.01609 12.9838 1.80009 8.99984 1.80009Z" fill="#979797"/>
<path d="M11.5435 13.1759L8.51953 10.1519V4.67993H9.47953V9.76793L12.2155 12.5039L11.5435 13.1759Z" fill="#979797"/>
</svg>
