<svg width="819" height="661" viewBox="0 0 819 661" fill="none" xmlns="http://www.w3.org/2000/svg">
<g clip-path="url(#clip0)">
<path d="M645.05 252.056V254.755" stroke="#263238" stroke-linecap="round" stroke-linejoin="round"/>
<path d="M645.05 261.353V271.253" stroke="#263238" stroke-linecap="round" stroke-linejoin="round" stroke-dasharray="3.67 3.67"/>
<path d="M645.05 274.552V277.252H642.35" stroke="#263238" stroke-linecap="round" stroke-linejoin="round"/>
<path d="M637.141 277.252H545.956" stroke="#263238" stroke-linecap="round" stroke-linejoin="round" stroke-dasharray="2.89 2.89"/>
<path d="M543.349 277.252H540.649V279.951" stroke="#263238" stroke-linecap="round" stroke-linejoin="round"/>
<path d="M540.649 284.859V331.487" stroke="#263238" stroke-linecap="round" stroke-linejoin="round" stroke-dasharray="2.73 2.73"/>
<path d="M540.649 333.942V336.641" stroke="#263238" stroke-linecap="round" stroke-linejoin="round"/>
<path d="M202.249 255.655V258.355" stroke="#263238" stroke-linecap="round" stroke-linejoin="round"/>
<path d="M202.249 263.633V334.901" stroke="#263238" stroke-linecap="round" stroke-linejoin="round" stroke-dasharray="2.93 2.93"/>
<path d="M202.249 337.541V340.241H204.949" stroke="#263238" stroke-linecap="round" stroke-linejoin="round"/>
<path d="M210.258 340.241H409.296" stroke="#263238" stroke-linecap="round" stroke-linejoin="round" stroke-dasharray="2.95 2.95"/>
<path d="M411.949 340.241H414.649" stroke="#263238" stroke-linecap="round" stroke-linejoin="round"/>
<path d="M479.449 18.0958H87.0488V271.852H479.449V18.0958Z" fill="#F0AE00"/>
<path d="M733.249 50.4904C694.426 50.4904 662.842 82.0696 662.842 120.885C662.842 159.701 694.426 191.28 733.249 191.28C772.071 191.28 803.654 159.701 803.654 120.885C803.654 82.0696 772.073 50.4904 733.249 50.4904ZM799.851 118.997H769.112C768.95 106.769 767.231 95.0615 764.131 84.8033C769.974 81.949 775.441 78.2704 780.369 73.8288C792.004 85.4746 799.359 101.393 799.851 118.997ZM733.249 187.505C724.922 187.505 716.986 180.752 710.9 168.489C709.442 165.552 708.144 162.379 706.998 159.028C715.202 155.511 724.105 153.66 733.249 153.66C742.391 153.66 751.294 155.511 759.5 159.028C758.353 162.379 757.056 165.552 755.598 168.487C749.514 180.75 741.574 187.505 733.249 187.505ZM733.249 149.884C723.709 149.884 714.415 151.791 705.837 155.418C702.931 145.627 701.32 134.459 701.162 122.773H765.336C765.177 134.459 763.568 145.627 760.659 155.418C752.082 151.79 742.789 149.884 733.249 149.884ZM701.162 118.997C701.32 107.325 702.926 96.1647 705.829 86.3816C714.412 90.0098 723.707 91.9175 733.249 91.9175C742.791 91.9175 752.088 90.008 760.668 86.3816C763.568 96.1647 765.177 107.323 765.336 118.997H701.162ZM733.249 54.2643C741.574 54.2643 749.512 61.0186 755.598 73.2799C757.059 76.226 758.361 79.406 759.509 82.7678C751.301 86.288 742.395 88.1417 733.249 88.1417C724.101 88.1417 715.197 86.288 706.987 82.7696C708.137 79.4078 709.438 76.226 710.9 73.2817C716.986 61.0186 724.922 54.2643 733.249 54.2643ZM777.615 71.2264C773.146 75.2199 768.212 78.5512 762.951 81.1751C761.781 77.7935 760.459 74.5846 758.982 71.6043C755.518 64.6287 751.432 59.2621 746.943 55.6825C758.562 58.1193 769.074 63.5903 777.615 71.2264ZM707.518 71.6043C706.04 74.5846 704.719 77.7917 703.549 81.1751C698.286 78.5512 693.354 75.2199 688.884 71.2264C697.425 63.5903 707.937 58.1193 719.556 55.6825C715.069 59.2621 710.979 64.6269 707.518 71.6043ZM686.13 73.827C691.057 78.2686 696.522 81.9472 702.368 84.8015C699.268 95.0597 697.549 106.767 697.387 118.996H666.649C667.14 101.391 674.495 85.4746 686.13 73.827ZM666.647 122.771H697.386C697.548 135.011 699.27 146.729 702.373 156.994C696.532 159.847 691.069 163.52 686.143 167.958C674.502 156.31 667.14 140.385 666.647 122.771ZM688.904 170.559C693.37 166.571 698.3 163.243 703.56 160.623C704.728 163.993 706.045 167.193 707.52 170.164C710.981 177.142 715.069 182.507 719.558 186.086C707.946 183.651 697.44 178.186 688.904 170.559ZM758.98 170.164C760.454 167.193 761.772 163.993 762.94 160.623C768.199 163.243 773.128 166.571 777.595 170.559C769.06 178.186 758.553 183.651 746.943 186.085C751.431 182.509 755.517 177.142 758.98 170.164ZM780.353 167.958C775.428 163.52 769.963 159.847 764.122 156.994C767.227 146.729 768.95 135.013 769.11 122.771H799.849C799.359 140.385 791.997 156.31 780.353 167.958Z" fill="#F0AE00"/>
<path d="M493.534 7.30493H105.467V255.625H493.534V7.30493Z" fill="white" stroke="#263238" stroke-miterlimit="10" stroke-linecap="round" stroke-linejoin="round"/>
<path d="M469.341 19.4043H150.368V184.818H469.341V19.4043Z" fill="white" stroke="#263238" stroke-miterlimit="10" stroke-linecap="round" stroke-linejoin="round"/>
<path d="M367.249 45.8705H415.372" stroke="#263238" stroke-miterlimit="10" stroke-linecap="round" stroke-linejoin="round"/>
<path d="M341.24 45.8705H361.987" stroke="#263238" stroke-miterlimit="10" stroke-linecap="round" stroke-linejoin="round"/>
<path d="M398.125 56.7317H415.371" stroke="#263238" stroke-miterlimit="10" stroke-linecap="round" stroke-linejoin="round"/>
<path d="M341.24 56.7317H391.46" stroke="#263238" stroke-miterlimit="10" stroke-linecap="round" stroke-linejoin="round"/>
<path d="M406.546 67.5946H415.371" stroke="#263238" stroke-miterlimit="10" stroke-linecap="round" stroke-linejoin="round"/>
<path d="M365.846 67.5946H398.476" stroke="#263238" stroke-miterlimit="10" stroke-linecap="round" stroke-linejoin="round"/>
<path d="M341.24 67.5946H361.987" stroke="#263238" stroke-miterlimit="10" stroke-linecap="round" stroke-linejoin="round"/>
<path d="M360.935 78.4557H415.372" stroke="#263238" stroke-miterlimit="10" stroke-linecap="round" stroke-linejoin="round"/>
<path d="M341.24 78.4557H356.022" stroke="#263238" stroke-miterlimit="10" stroke-linecap="round" stroke-linejoin="round"/>
<path d="M410.057 114.682H415.372" stroke="#263238" stroke-miterlimit="10" stroke-linecap="round" stroke-linejoin="round"/>
<path d="M341.24 114.682H405.142" stroke="#263238" stroke-miterlimit="10" stroke-linecap="round" stroke-linejoin="round"/>
<path d="M383.038 125.545H415.372" stroke="#263238" stroke-miterlimit="10" stroke-linecap="round" stroke-linejoin="round"/>
<path d="M341.24 125.545H376.02" stroke="#263238" stroke-miterlimit="10" stroke-linecap="round" stroke-linejoin="round"/>
<path d="M370.057 136.406H415.372" stroke="#263238" stroke-miterlimit="10" stroke-linecap="round" stroke-linejoin="round"/>
<path d="M341.24 136.406H361.987" stroke="#263238" stroke-miterlimit="10" stroke-linecap="round" stroke-linejoin="round"/>
<path d="M392.16 147.269H415.371" stroke="#263238" stroke-miterlimit="10" stroke-linecap="round" stroke-linejoin="round"/>
<path d="M358.478 147.269H385.145" stroke="#263238" stroke-miterlimit="10" stroke-linecap="round" stroke-linejoin="round"/>
<path d="M341.24 147.269H354.618" stroke="#263238" stroke-miterlimit="10" stroke-linecap="round" stroke-linejoin="round"/>
<path d="M243.603 54.1311C243.603 54.1311 245.84 55.3513 248.69 50.8755C251.537 46.4014 252.759 37.043 248.69 29.7219C244.62 22.4007 234.855 22.6023 229.565 22.8057C224.276 23.009 221.223 16.7029 207.592 23.009C193.962 29.3152 192.333 38.6718 191.725 46.6048C191.115 54.5379 195.793 61.8608 193.149 66.3348C190.505 70.8089 177.483 72.4376 174.839 82.2009C172.195 91.9643 178.095 97.4569 177.89 99.8973C177.687 102.338 174.636 106 169.142 108.847C163.649 111.696 158.97 127.357 170.769 135.9C182.568 144.443 196.607 145.46 212.475 136.917C228.342 128.374 239.33 112.508 240.55 103.763C241.77 95.0165 238.311 92.5762 243.194 89.1172C248.078 85.6581 253.976 79.5554 250.925 72.2342C247.874 64.9113 242.787 59.4186 242.787 57.5883C242.789 55.758 243.603 54.1311 243.603 54.1311Z" fill="#263238"/>
<path d="M190.358 176.971C190.358 176.971 183.302 187.411 182.174 206.317C181.045 225.222 188.382 250.899 188.382 250.899H255.549C255.549 250.899 260.628 224.375 258.654 207.443C256.679 190.512 253.009 183.178 253.009 183.178L247.647 171.044L192.05 172.455L190.358 176.971Z" fill="#263238"/>
<path d="M212.477 68.3684C212.477 68.3684 212.274 88.3036 211.46 90.744C210.647 93.1844 206.986 96.8468 196.61 101.321C196.61 101.321 203.323 143.833 204.545 156.444C205.767 169.054 205.765 177.396 205.765 177.396C205.765 177.396 220.82 179.633 228.145 179.226C235.469 178.819 244.217 174.343 244.217 174.343L241.571 99.0838L230.179 92.3709L229.568 79.1504C229.568 79.1504 217.159 67.3516 215.734 66.5382C214.308 65.7247 212.477 68.3684 212.477 68.3684Z" fill="white" stroke="#263238" stroke-miterlimit="10" stroke-linecap="round" stroke-linejoin="round"/>
<path d="M216.887 72.8515C216.887 72.8515 225.635 86.9593 230.151 91.1922L229.566 79.1505L217.452 69.4663L216.887 72.8515Z" fill="#263238" stroke="#263238" stroke-miterlimit="10" stroke-linecap="round" stroke-linejoin="round"/>
<path d="M241.985 110.904L198.482 113.375C200.565 126.938 203.742 148.154 204.545 156.445C205.765 169.056 205.765 177.397 205.765 177.397C205.765 177.397 220.82 179.634 228.145 179.228C235.469 178.821 244.217 174.345 244.217 174.345L241.985 110.904Z" fill="white" stroke="#263238" stroke-miterlimit="10" stroke-linecap="round" stroke-linejoin="round"/>
<path d="M236.672 39.9675C236.672 39.9675 224.913 56.001 212.442 59.9189L209.235 60.2753C209.235 60.2753 205.672 55.2883 203.89 59.9189C202.108 64.5513 205.672 69.8946 207.811 70.9636C209.949 72.0326 212.086 70.6073 212.086 70.6073L213.511 69.1819C213.511 69.1819 220.638 77.3759 225.627 80.2266C230.615 83.0774 232.753 85.2154 235.248 82.721C237.743 80.2266 242.018 73.8143 243.087 66.6876C244.156 59.5626 244.156 48.5179 244.156 48.5179C244.156 48.5179 237.741 39.9675 236.672 39.9675Z" fill="white" stroke="#263238" stroke-miterlimit="10" stroke-linecap="round" stroke-linejoin="round"/>
<path d="M236.672 51.7268C236.672 51.7268 236.315 58.4954 238.454 59.9208C240.592 61.3461 240.592 63.8405 239.167 64.1951C237.741 64.5514 235.959 64.1951 235.959 64.1951" stroke="#263238" stroke-miterlimit="10" stroke-linecap="round" stroke-linejoin="round"/>
<path d="M227.764 66.6893C227.764 66.6893 230.969 70.2527 237.028 68.471" stroke="#263238" stroke-miterlimit="10" stroke-linecap="round" stroke-linejoin="round"/>
<path d="M227.735 57.995C228.296 57.995 228.752 56.9935 228.752 55.758C228.752 54.5225 228.296 53.521 227.735 53.521C227.173 53.521 226.718 54.5225 226.718 55.758C226.718 56.9935 227.173 57.995 227.735 57.995Z" fill="#263238"/>
<path d="M241.161 56.9782C241.722 56.9782 242.178 55.9766 242.178 54.7412C242.178 53.5057 241.722 52.5042 241.161 52.5042C240.599 52.5042 240.144 53.5057 240.144 54.7412C240.144 55.9766 240.599 56.9782 241.161 56.9782Z" fill="#263238"/>
<path d="M159.184 212.403C159.184 212.403 157.806 220.527 157.345 222.368C156.886 224.207 159.184 232.945 159.184 232.945C159.184 232.945 164.858 236.623 165.931 236.776C167.004 236.929 168.843 236.318 168.69 234.937C168.537 233.557 166.392 233.557 166.392 233.557L164.246 230.492L164.705 228.653C164.705 228.653 165.778 232.331 166.545 230.339C167.311 228.347 167.005 227.272 167.772 224.054C168.539 220.837 167.619 218.076 167.005 216.237C166.392 214.397 165.625 212.252 165.625 212.252L166.392 208.726L159.492 207.499L159.184 212.403Z" fill="white" stroke="#263238" stroke-miterlimit="10" stroke-linecap="round" stroke-linejoin="round"/>
<path d="M164.703 228.651L165.162 222.98" stroke="#263238" stroke-miterlimit="10" stroke-linecap="round" stroke-linejoin="round"/>
<path d="M205.598 96.2709C205.598 96.2709 214.628 174.149 213.5 198.414C213.5 198.414 193.745 197.568 180.761 194.746C180.761 194.746 195.437 155.808 195.719 151.575C196.002 147.343 192.333 140.853 192.333 140.853L168.345 211.395L158.749 208.573L183.584 108.687L205.598 96.2709Z" fill="white" stroke="#263238" stroke-miterlimit="10" stroke-linecap="round" stroke-linejoin="round"/>
<path d="M302.225 118.899L305.598 116.446C305.598 116.446 309.736 115.218 311.115 113.534C312.496 111.847 312.651 111.388 312.651 111.388C312.651 111.388 316.177 111.082 317.557 108.629C318.938 106.176 318.63 99.2783 318.63 99.2783C318.63 99.2783 320.776 96.5193 320.623 94.986C320.47 93.4527 318.936 92.9937 317.25 94.2193C315.563 95.4449 314.643 96.0586 314.643 96.0586L305.445 105.255L302.38 107.708C302.38 107.708 301.613 110.62 300.693 112.153C299.772 113.687 297.626 116.598 297.626 116.598L302.225 118.899Z" fill="white" stroke="#263238" stroke-miterlimit="10" stroke-linecap="round" stroke-linejoin="round"/>
<path d="M298.164 115.177L301.611 109.855C301.611 109.855 303.757 104.031 304.217 103.11C304.676 102.19 309.889 97.592 310.348 97.1312C310.809 96.6723 313.108 92.0723 314.182 91.6134C315.255 91.1545 315.869 92.9938 315.869 94.833C315.869 96.6723 311.882 102.498 311.882 102.498C311.882 102.498 311.576 107.863 309.891 110.316C308.203 112.769 304.678 113.688 304.678 113.688" fill="white"/>
<path d="M298.164 115.177L301.611 109.855C301.611 109.855 303.757 104.031 304.217 103.11C304.676 102.19 309.889 97.592 310.348 97.1312C310.809 96.6723 313.108 92.0723 314.182 91.6134C315.255 91.1545 315.869 92.9938 315.869 94.833C315.869 96.6723 311.882 102.498 311.882 102.498C311.882 102.498 311.576 107.863 309.891 110.316C308.203 112.769 304.678 113.688 304.678 113.688" stroke="#263238" stroke-miterlimit="10" stroke-linecap="round" stroke-linejoin="round"/>
<path d="M327.981 64.7889L308.816 115.373" stroke="#263238" stroke-miterlimit="10" stroke-linecap="round" stroke-linejoin="round"/>
<path d="M312.65 111.388C312.65 111.388 311.115 112.614 312.189 106.79" stroke="#263238" stroke-miterlimit="10" stroke-linecap="round" stroke-linejoin="round"/>
<path d="M318.63 99.2783C318.63 99.2783 316.178 101.424 315.257 100.351" stroke="#263238" stroke-miterlimit="10" stroke-linecap="round" stroke-linejoin="round"/>
<path d="M234.665 95.4233C234.665 95.4233 239.745 158.346 239.745 174.712C239.745 191.079 240.027 197.568 240.027 197.568C240.027 197.568 242.85 196.44 247.929 195.592C253.009 194.747 259.782 191.925 259.782 191.925C259.782 191.925 246.237 154.678 246.237 152.139C246.237 149.599 247.929 139.159 247.929 139.159C247.929 139.159 272.483 159.194 275.304 158.063C278.124 156.935 303.241 118.843 303.241 118.843L298.164 115.173L270.789 136.057C270.789 136.057 252.447 101.632 251.317 101.067C250.186 100.504 234.665 95.4233 234.665 95.4233Z" fill="white" stroke="#263238" stroke-miterlimit="10" stroke-linecap="round" stroke-linejoin="round"/>
<path d="M247.93 139.161L251.035 122.795L253.855 143.392L247.93 139.161Z" fill="#263238" stroke="#263238" stroke-miterlimit="10" stroke-linecap="round" stroke-linejoin="round"/>
<path d="M192.333 140.853L186.407 128.156" stroke="#263238" stroke-miterlimit="10" stroke-linecap="round" stroke-linejoin="round"/>
<path d="M493.534 227.965H105.467V255.626H493.534V227.965Z" fill="#263238" stroke="#263238" stroke-miterlimit="10" stroke-linecap="round" stroke-linejoin="round"/>
<path d="M493.534 237.759H105.467V245.829H493.534V237.759Z" fill="white" stroke="#263238" stroke-miterlimit="10" stroke-linecap="round" stroke-linejoin="round"/>
<path d="M549.558 661L533.711 499.161L521.345 501.875L543.731 661H549.558Z" fill="#263238" stroke="#263238" stroke-miterlimit="10" stroke-linecap="round" stroke-linejoin="round"/>
<path d="M366.543 661L388.93 501.875L376.562 499.161L360.715 661H366.543Z" fill="#263238" stroke="#263238" stroke-miterlimit="10" stroke-linecap="round" stroke-linejoin="round"/>
<path d="M380.215 518.698L372.264 329.453C371.789 318.184 380.8 308.789 392.084 308.789H524.701C536.264 308.789 545.376 318.637 544.477 330.161L529.798 518.7H380.215V518.698Z" fill="#263238" stroke="#263238" stroke-miterlimit="10" stroke-linecap="round" stroke-linejoin="round"/>
<path d="M542.368 477.219H366.366V518.698H542.368V477.219Z" fill="white" stroke="#263238" stroke-miterlimit="10" stroke-linecap="round" stroke-linejoin="round"/>
<path d="M380.214 518.698H366.892L357.566 440.777C357.566 434.523 362.635 429.455 368.89 429.455C375.145 429.455 380.214 434.523 380.214 440.777V518.698Z" fill="#263238" stroke="#263238" stroke-miterlimit="10" stroke-linecap="round" stroke-linejoin="round"/>
<path d="M529.797 518.698H543.119L552.446 440.777C552.446 434.523 547.376 429.455 541.121 429.455C534.867 429.455 529.797 434.523 529.797 440.777V518.698Z" fill="#263238" stroke="#263238" stroke-miterlimit="10" stroke-linecap="round" stroke-linejoin="round"/>
<path d="M397.796 372.126L404.082 436.231H503.396L509.682 372.126H397.796Z" fill="white" stroke="#263238" stroke-miterlimit="10" stroke-linecap="round" stroke-linejoin="round"/>
<path d="M438.185 267.132L385.2 296.838L356.479 384.47H563.467C563.467 384.47 530.289 299.312 523.851 294.856C517.414 290.4 466.411 266.635 466.411 266.635L438.185 267.132Z" fill="white" stroke="#263238" stroke-miterlimit="10" stroke-linecap="round" stroke-linejoin="round"/>
<path d="M436.202 259.706C436.202 259.706 431.746 263.171 430.757 266.639C429.766 270.105 426.299 298.324 426.299 298.324C426.299 298.324 445.116 285.946 450.563 284.956C456.01 283.964 482.75 300.304 482.75 300.304C482.75 300.304 476.314 268.122 471.36 261.191C466.41 254.259 444.621 251.784 436.202 259.706Z" fill="white" stroke="#263238" stroke-miterlimit="10" stroke-linecap="round" stroke-linejoin="round"/>
<path d="M439.175 271.093C439.175 271.093 452.545 316.147 453.535 311.196C454.527 306.245 466.411 272.578 466.411 272.578C466.411 272.578 444.127 274.559 439.175 271.093Z" fill="white" stroke="#263238" stroke-miterlimit="10" stroke-linecap="round" stroke-linejoin="round"/>
<path d="M428.885 239.899C428.885 239.899 432.038 257.248 434.668 264.083C437.298 270.918 446.764 285.114 454.124 283.536C461.486 281.96 473.582 266.713 475.159 260.928C476.738 255.146 478.84 230.962 478.84 225.705C478.84 220.448 473.582 212.562 457.28 217.293C440.977 222.024 429.41 229.385 428.885 239.899Z" fill="white" stroke="#263238" stroke-miterlimit="10" stroke-linecap="round" stroke-linejoin="round"/>
<path d="M439.176 271.093C439.176 271.093 444.487 262.787 455.449 264.713C466.411 266.637 469.441 270.542 469.441 270.542C469.441 270.542 463.222 284.144 454.281 285.699C445.342 287.252 438.839 274.752 439.176 271.093Z" fill="#263238" stroke="#263238" stroke-miterlimit="10" stroke-linecap="round" stroke-linejoin="round"/>
<path d="M446.511 270.931C446.511 270.931 451.563 273.652 460.891 270.931" stroke="white" stroke-miterlimit="10" stroke-linecap="round" stroke-linejoin="round"/>
<path d="M441.589 253.616C442.58 253.616 443.383 252.009 443.383 250.026C443.383 248.043 442.58 246.435 441.589 246.435C440.597 246.435 439.794 248.043 439.794 250.026C439.794 252.009 440.597 253.616 441.589 253.616Z" fill="#263238"/>
<path d="M463.294 253.616C464.285 253.616 465.088 252.009 465.088 250.026C465.088 248.043 464.285 246.435 463.294 246.435C462.303 246.435 461.499 248.043 461.499 250.026C461.499 252.009 462.303 253.616 463.294 253.616Z" fill="#263238"/>
<path d="M457.091 249.047L457.514 262.561H451.109" fill="white"/>
<path d="M457.091 249.047L457.514 262.561H451.109" stroke="#263238" stroke-miterlimit="10" stroke-linecap="round" stroke-linejoin="round"/>
<path d="M458.398 243.826C458.398 243.826 463.62 240.563 468.189 243.5L458.398 243.826Z" fill="white"/>
<path d="M458.398 243.826C458.398 243.826 463.62 240.563 468.189 243.5" stroke="#263238" stroke-miterlimit="10" stroke-linecap="round" stroke-linejoin="round"/>
<path d="M450.238 244.152C450.238 244.152 445.018 239.91 436.856 243.173L450.238 244.152Z" fill="white"/>
<path d="M450.238 244.152C450.238 244.152 445.018 239.91 436.856 243.173" stroke="#263238" stroke-miterlimit="10" stroke-linecap="round" stroke-linejoin="round"/>
<path d="M415.925 225.296L418.729 201.942C420.13 190.258 427.628 180.196 438.425 175.511C446.379 172.061 455.368 171.865 463.463 174.968L463.805 175.099C476.385 179.922 484.791 191.885 485.061 205.354L485.439 224.2" stroke="#263238" stroke-miterlimit="10" stroke-linecap="round" stroke-linejoin="round"/>
<path d="M423.534 246.398C420.505 247.1 417.481 245.213 416.779 242.185L414.235 231.217C413.533 228.188 415.42 225.165 418.449 224.463C421.48 223.761 424.503 225.647 425.206 228.676L427.748 239.643C428.45 242.671 426.564 245.696 423.534 246.398Z" fill="white" stroke="#263238" stroke-miterlimit="10" stroke-linecap="round" stroke-linejoin="round"/>
<path d="M483.79 246.659C480.689 246.432 478.36 243.734 478.587 240.631L479.411 229.403C479.64 226.302 482.338 223.973 485.439 224.2C488.541 224.427 490.872 227.127 490.643 230.227L489.819 241.456C489.592 244.557 486.894 246.885 483.79 246.659Z" fill="white" stroke="#263238" stroke-miterlimit="10" stroke-linecap="round" stroke-linejoin="round"/>
<path d="M468.846 222.55C468.846 222.55 460.958 229.911 447.813 238.848C434.666 247.787 423.099 244.105 423.625 241.477C424.15 238.848 426.254 235.169 426.254 235.169C426.254 235.169 421.522 236.746 420.469 227.809C419.418 218.871 417.316 198.893 427.306 191.007C437.297 183.12 459.907 179.966 469.899 183.12C479.889 186.275 484.097 200.997 484.097 207.83C484.097 214.664 481.993 228.334 481.993 228.334C481.993 228.334 484.097 231.489 478.312 234.116C472.527 236.744 468.32 234.116 469.373 229.385C470.425 224.654 468.846 222.55 468.846 222.55Z" fill="#263238" stroke="#263238" stroke-miterlimit="10" stroke-linecap="round" stroke-linejoin="round"/>
<path d="M365.391 360.707C365.391 360.707 371.335 358.231 381.733 362.192C392.132 366.153 412.929 372.094 415.899 372.094C418.871 372.094 435.708 373.578 435.708 373.578L436.201 384.472C436.201 384.472 360.934 385.957 356.478 384.472C352.021 382.987 353.508 368.627 365.391 360.707Z" fill="white" stroke="#263238" stroke-miterlimit="10" stroke-linecap="round" stroke-linejoin="round"/>
<path d="M418.252 378.364C418.252 378.364 431.464 366.99 435.502 364.42C439.537 361.851 450.915 379.83 451.282 381.299C451.65 382.768 448.347 383.5 448.347 383.5C448.347 383.5 439.537 381.666 437.703 381.299C435.869 380.932 434.033 382.766 429.263 382.766C424.493 382.766 416.053 382.766 416.053 382.766" fill="white"/>
<path d="M418.252 378.364C418.252 378.364 431.464 366.99 435.502 364.42C439.537 361.851 450.915 379.83 451.282 381.299C451.65 382.768 448.347 383.5 448.347 383.5C448.347 383.5 439.537 381.666 437.703 381.299C435.869 380.932 434.033 382.766 429.263 382.766C424.493 382.766 416.053 382.766 416.053 382.766" stroke="#263238" stroke-miterlimit="10" stroke-linecap="round" stroke-linejoin="round"/>
<path d="M556.699 360.707C556.699 360.707 550.755 358.231 540.358 362.192C529.96 366.153 509.161 372.094 506.191 372.094C503.221 372.094 486.384 373.578 486.384 373.578L485.889 384.472C485.889 384.472 561.156 385.957 565.614 384.472C570.069 382.987 568.584 368.627 556.699 360.707Z" fill="white" stroke="#263238" stroke-miterlimit="10" stroke-linecap="round" stroke-linejoin="round"/>
<path d="M499.385 378.364C499.385 378.364 486.175 366.99 482.137 364.42C478.1 361.851 466.724 379.83 466.357 381.299C465.989 382.766 469.292 383.5 469.292 383.5C469.292 383.5 478.1 381.666 479.934 381.299C481.768 380.932 483.604 382.766 488.374 382.766C493.144 382.766 501.586 382.766 501.586 382.766" fill="white"/>
<path d="M499.385 378.364C499.385 378.364 486.175 366.99 482.137 364.42C478.1 361.851 466.724 379.83 466.357 381.299C465.989 382.766 469.292 383.5 469.292 383.5C469.292 383.5 478.1 381.666 479.934 381.299C481.768 380.932 483.604 382.766 488.374 382.766C493.144 382.766 501.586 382.766 501.586 382.766" stroke="#263238" stroke-miterlimit="10" stroke-linecap="round" stroke-linejoin="round"/>
<path d="M499.626 436.231H404.082V477.71H499.626V436.231Z" fill="white" stroke="#263238" stroke-miterlimit="10" stroke-linecap="round" stroke-linejoin="round"/>
<path d="M412.883 433.717C412.883 433.717 440.54 441.257 445.569 461.369" stroke="#263238" stroke-miterlimit="10" stroke-linecap="round" stroke-linejoin="round"/>
<path d="M493.34 436.231C493.34 436.231 470.713 434.975 463.167 460.115" stroke="#263238" stroke-miterlimit="10" stroke-linecap="round" stroke-linejoin="round"/>
<path d="M423.546 460.066C424.501 444.88 414.277 430.731 399.271 428.199C394.733 427.432 389.94 427.747 385.225 429.946C366.367 438.747 384.779 644.434 384.779 644.434H399.865C399.863 644.432 419.595 522.8 423.546 460.066Z" fill="white" stroke="#263238" stroke-miterlimit="10" stroke-linecap="round" stroke-linejoin="round"/>
<path d="M383.125 632.16L378.67 651.249L363.667 660.795H401.856L402.491 632.16H383.125Z" fill="white" stroke="#263238" stroke-miterlimit="10" stroke-linecap="round" stroke-linejoin="round"/>
<path d="M378.67 651.249C378.67 651.249 388.217 645.114 395.036 651.249H378.67Z" fill="white"/>
<path d="M378.67 651.249C378.67 651.249 388.217 645.114 395.036 651.249" stroke="#263238" stroke-miterlimit="10" stroke-linecap="round" stroke-linejoin="round"/>
<path d="M486.476 460.066C485.52 444.88 495.744 430.731 510.751 428.199C515.288 427.432 520.082 427.747 524.796 429.946C543.655 438.747 525.242 644.434 525.242 644.434H510.157C510.157 644.432 490.425 522.8 486.476 460.066Z" fill="white" stroke="#263238" stroke-miterlimit="10" stroke-linecap="round" stroke-linejoin="round"/>
<path d="M526.896 632.16L531.35 651.249L546.353 660.795H508.164L507.528 632.16H526.896Z" fill="white" stroke="#263238" stroke-miterlimit="10" stroke-linecap="round" stroke-linejoin="round"/>
<path d="M531.35 651.249C531.35 651.249 521.803 645.114 514.984 651.249H531.35Z" fill="white"/>
<path d="M531.35 651.249C531.35 651.249 521.803 645.114 514.984 651.249" stroke="#263238" stroke-miterlimit="10" stroke-linecap="round" stroke-linejoin="round"/>
<path d="M516.352 385.177H393.103V316.496C393.103 314.01 395.117 311.996 397.603 311.996H511.854C514.34 311.996 516.354 314.01 516.354 316.496V385.177H516.352Z" fill="#0169EE"/>
<path d="M574.038 312.59C574.69 311.732 575.426 310.987 576.164 310.398" stroke="#263238" stroke-miterlimit="10" stroke-linecap="round" stroke-linejoin="round"/>
<path d="M580.088 337.86C580.088 337.86 585.591 332.092 576.958 326.599C571.724 323.266 571.103 319.172 572.301 315.763" stroke="#263238" stroke-miterlimit="10" stroke-linecap="round" stroke-linejoin="round"/>
<path d="M589.293 325.136C589.293 325.136 595.985 328.271 593.894 337.68" stroke="#263238" stroke-miterlimit="10" stroke-linecap="round" stroke-linejoin="round"/>
<path d="M604.374 342.382H576.217V383.981H604.374V342.382Z" fill="white" stroke="#263238" stroke-miterlimit="10" stroke-linecap="round" stroke-linejoin="round"/>
<path d="M603.113 378.319H600.172C598.889 378.319 597.85 377.28 597.85 375.997C597.85 374.714 598.889 373.676 600.172 373.676H603.113C605.54 373.676 607.514 371.699 607.514 369.275V359.19C607.514 356.762 605.538 354.79 603.113 354.79H599.33C598.046 354.79 597.008 353.749 597.008 352.468C597.008 351.185 598.046 350.146 599.33 350.146H603.113C608.101 350.146 612.158 354.203 612.158 359.19V369.275C612.158 374.262 608.101 378.319 603.113 378.319Z" fill="white" stroke="#263238" stroke-miterlimit="10" stroke-linecap="round" stroke-linejoin="round"/>
<path d="M289.482 348.869H264.46V384.472H289.482V348.869Z" fill="#263238" stroke="#263238" stroke-miterlimit="10" stroke-linecap="round" stroke-linejoin="round"/>
<path d="M677.209 661L662.564 405.714H650.058L671.515 661H677.209Z" fill="#263238" stroke="#263238" stroke-miterlimit="10" stroke-linecap="round" stroke-linejoin="round"/>
<path d="M723.221 661L708.576 405.714H696.046L717.504 661H723.221Z" fill="#263238" stroke="#263238" stroke-miterlimit="10" stroke-linecap="round" stroke-linejoin="round"/>
<path d="M246.115 661L264.363 405.714H251.886L240.461 661H246.115Z" fill="#263238" stroke="#263238" stroke-miterlimit="10" stroke-linecap="round" stroke-linejoin="round"/>
<path d="M194.64 661L212.889 405.714H200.434L189.01 661H194.64Z" fill="#263238" stroke="#263238" stroke-miterlimit="10" stroke-linecap="round" stroke-linejoin="round"/>
<path d="M724.605 391.311H192.273V413.639H724.605V391.311Z" fill="white" stroke="#263238" stroke-miterlimit="10" stroke-linecap="round" stroke-linejoin="round"/>
<path d="M724.605 391.311H192.273V398.97H724.605V391.311Z" fill="#263238" stroke="#263238" stroke-miterlimit="10" stroke-linecap="round" stroke-linejoin="round"/>
<path d="M731.541 383.878H185.342V392.39H731.541V383.878Z" fill="white" stroke="#263238" stroke-miterlimit="10" stroke-linecap="round" stroke-linejoin="round"/>
<path d="M684.575 7.30493H524.654V109.637H684.575V7.30493Z" fill="white" stroke="#263238" stroke-miterlimit="10" stroke-linecap="round" stroke-linejoin="round"/>
<path d="M684.575 98.238H524.654V109.637H684.575V98.238Z" fill="#263238" stroke="#263238" stroke-miterlimit="10" stroke-linecap="round" stroke-linejoin="round"/>
<path d="M684.575 102.275H524.654V105.601H684.575V102.275Z" fill="white" stroke="#263238" stroke-miterlimit="10" stroke-linecap="round" stroke-linejoin="round"/>
<path d="M601.839 81.5152C614.844 81.5152 625.388 70.9736 625.388 57.9698C625.388 44.9661 614.844 34.4244 601.839 34.4244C588.833 34.4244 578.289 44.9661 578.289 57.9698C578.289 70.9736 588.833 81.5152 601.839 81.5152Z" fill="#0169EE"/>
<path d="M615.484 58.481L594.995 46.6534V70.3086L615.484 58.481Z" fill="white"/>
<path d="M684.575 141.999H524.654V244.332H684.575V141.999Z" fill="white" stroke="#263238" stroke-miterlimit="10" stroke-linecap="round" stroke-linejoin="round"/>
<path d="M684.575 232.932H524.654V244.332H684.575V232.932Z" fill="#263238" stroke="#263238" stroke-miterlimit="10" stroke-linecap="round" stroke-linejoin="round"/>
<path d="M684.575 236.969H524.654V240.295H684.575V236.969Z" fill="white" stroke="#263238" stroke-miterlimit="10" stroke-linecap="round" stroke-linejoin="round"/>
<path d="M601.839 216.211C614.844 216.211 625.388 205.67 625.388 192.666C625.388 179.662 614.844 169.121 601.839 169.121C588.833 169.121 578.289 179.662 578.289 192.666C578.289 205.67 588.833 216.211 601.839 216.211Z" fill="#0169EE"/>
<path d="M615.484 193.175L594.995 181.348V205.003L615.484 193.175Z" fill="white"/>
<path d="M100.684 302.753H12.876V408.327H100.684V302.753Z" fill="#F0AE00"/>
<path d="M30.1056 287.195H22.3242V313.864H30.1056V287.195Z" fill="#263238"/>
<path d="M60.6702 287.195H52.8906V313.864H60.6702V287.195Z" fill="#263238"/>
<path d="M91.2357 287.195H83.4561V313.864H91.2357V287.195Z" fill="#263238"/>
<path d="M55.9599 382.825V390.006H27.1761V384.292L41.8677 370.42C45.2427 367.209 45.8421 365.251 45.8421 363.401C45.8421 360.41 43.7739 358.668 39.7455 358.668C36.4821 358.668 33.7065 359.919 31.8561 362.478L25.4355 358.34C28.3731 354.043 33.7047 351.269 40.5627 351.269C49.0515 351.269 54.7089 355.621 54.7089 362.53C54.7089 366.23 53.6757 369.605 48.3423 374.554L39.5817 382.825H55.9599Z" fill="white"/>
<path d="M88.3849 378.038C88.3849 384.783 83.4331 390.659 72.5503 390.659C67.2709 390.659 61.7215 389.192 58.0225 386.577L61.5055 379.832C64.3891 382.01 68.3617 383.259 72.3343 383.259C76.7425 383.259 79.4623 381.412 79.4623 378.31C79.4623 375.317 77.5039 373.359 70.5937 373.359H60.8539L62.8123 351.923H86.0467V358.997H70.1581L69.5605 366.232H72.6619C83.9227 366.23 88.3849 371.291 88.3849 378.038Z" fill="white"/>
<path d="M54.4563 322.582L47.9511 342.462H43.0083L38.6343 329L34.1181 342.462H29.2041L22.6719 322.582H27.4437L31.9311 336.553L36.6183 322.582H40.8789L45.4239 336.667L50.0535 322.582H54.4563Z" fill="white"/>
<path d="M70.4655 336.071H58.9059C59.3307 337.973 60.9507 339.139 63.2799 339.139C64.8981 339.139 66.0627 338.655 67.1139 337.664L69.4719 340.217C68.0535 341.835 65.9223 342.69 63.1665 342.69C57.8835 342.69 54.4473 339.366 54.4473 334.824C54.4473 330.251 57.9411 326.957 62.5995 326.957C67.0869 326.957 70.5519 329.966 70.5519 334.879C70.5501 335.221 70.4943 335.702 70.4655 336.071ZM58.8483 333.488H66.3759C66.0627 331.557 64.6137 330.306 62.6265 330.306C60.6087 330.306 59.1615 331.527 58.8483 333.488Z" fill="white"/>
<path d="M89.0801 321.389V342.462H84.8483V340.7C83.7413 342.033 82.1213 342.688 80.0765 342.688C75.7601 342.688 72.4355 339.62 72.4355 334.822C72.4355 330.02 75.7583 326.955 80.0765 326.955C81.9503 326.955 83.5415 327.551 84.6503 328.798V321.387H89.0801V321.389ZM84.735 334.824C84.735 332.182 83.0303 330.591 80.8433 330.591C78.6293 330.591 76.9247 332.182 76.9247 334.824C76.9247 337.466 78.6293 339.055 80.8433 339.055C83.0303 339.055 84.735 337.466 84.735 334.824Z" fill="white"/>
<path d="M751.162 302.663H706.414V250.033L714.059 242.696H751.162V302.663Z" fill="white" stroke="#263238" stroke-miterlimit="10" stroke-linecap="round" stroke-linejoin="round"/>
<path d="M706.414 251.534H720.742L714.951 245.527V250.033H706.558L706.414 250.256V251.534Z" fill="#263238"/>
<path d="M714.847 258.787H743.775" stroke="#263238" stroke-miterlimit="10" stroke-linecap="round" stroke-linejoin="round"/>
<path d="M714.847 266.066H743.775" stroke="#263238" stroke-miterlimit="10" stroke-linecap="round" stroke-linejoin="round"/>
<path d="M714.847 273.348H743.775" stroke="#263238" stroke-miterlimit="10" stroke-linecap="round" stroke-linejoin="round"/>
<path d="M714.847 280.628H743.775" stroke="#263238" stroke-miterlimit="10" stroke-linecap="round" stroke-linejoin="round"/>
<path d="M714.847 287.909H743.775" stroke="#263238" stroke-miterlimit="10" stroke-linecap="round" stroke-linejoin="round"/>
<path d="M807.822 341.429H763.076V288.798L770.721 281.463H807.822V341.429Z" fill="white" stroke="#263238" stroke-miterlimit="10" stroke-linecap="round" stroke-linejoin="round"/>
<path d="M763.076 290.301H777.404L771.614 284.294V288.798H763.22L763.076 289.023V290.301Z" fill="#263238"/>
<path d="M771.507 297.554H800.437" stroke="#263238" stroke-miterlimit="10" stroke-linecap="round" stroke-linejoin="round"/>
<path d="M771.507 304.834H800.437" stroke="#263238" stroke-miterlimit="10" stroke-linecap="round" stroke-linejoin="round"/>
<path d="M771.507 312.113H800.437" stroke="#263238" stroke-miterlimit="10" stroke-linecap="round" stroke-linejoin="round"/>
<path d="M771.507 319.395H800.437" stroke="#263238" stroke-miterlimit="10" stroke-linecap="round" stroke-linejoin="round"/>
<path d="M771.507 326.675H800.437" stroke="#263238" stroke-miterlimit="10" stroke-linecap="round" stroke-linejoin="round"/>
<path d="M40.4159 489.509C44.2121 491.167 53.4947 490.958 53.5019 490.958C53.5973 490.956 51.5075 484.882 51.3293 484.515C49.2935 480.255 42.8531 473.222 37.6115 473.927C33.8351 474.439 31.7363 478.216 32.5877 481.77C33.4589 485.4 37.1849 488.096 40.4159 489.509Z" fill="#263238"/>
<path d="M43.619 516.395C47.5556 516.969 55.841 514.566 56.498 514.372C57.8066 519.01 59.5256 523.662 61.5236 528.274C62.663 530.913 63.8924 533.533 65.1596 536.146C64.4036 535.04 63.7196 534.057 63.6098 533.929C60.5192 530.359 52.448 525.274 47.5826 527.342C44.0744 528.831 43.0484 533.027 44.8088 536.231C46.607 539.501 50.9126 541.121 54.4028 541.628C57.9452 542.145 65.0498 540.239 66.9236 539.71C67.4204 540.707 67.9046 541.707 68.405 542.703C70.8044 547.479 73.2182 552.234 75.4448 556.972C76.2296 558.641 76.9406 560.313 77.6606 561.985C76.9874 561.002 76.4132 560.179 76.3124 560.064C73.2218 556.494 65.1524 551.41 60.2852 553.477C56.7788 554.966 55.751 559.164 57.5114 562.366C59.3114 565.636 63.6152 567.256 67.1072 567.763C70.4858 568.255 77.0594 566.556 79.2896 565.937C79.9736 567.67 80.663 569.405 81.2462 571.114C81.6206 572.291 82.0616 573.4 82.3676 574.602C82.6988 575.786 83.0264 576.96 83.3504 578.121C83.8922 580.379 84.4664 582.708 84.9398 584.925C85.28 586.464 85.577 587.938 85.8794 589.421C85.118 587.751 83.5556 584.511 83.3954 584.256C80.8826 580.259 73.6772 574.014 68.5508 575.317C64.859 576.258 63.2084 580.251 64.463 583.683C65.7446 587.189 69.7532 589.439 73.1264 590.47C76.8398 591.606 85.0622 590.569 86.09 590.432C86.5832 592.887 87.0386 595.281 87.4328 597.548C88.3148 602.548 88.979 607.031 89.4848 610.825H92.9516C92.3468 606.898 91.5566 602.224 90.5126 596.972C90.023 594.476 89.4488 591.82 88.8332 589.095C89.4506 588.849 92.9588 587.43 96.0656 585.694C98.7728 588.625 105.708 592.054 106.606 592.491C105.663 594.811 104.722 597.059 103.8 599.166C101.883 603.579 100.06 607.493 98.4524 610.825H102.202C103.584 607.754 105.103 604.261 106.687 600.386C107.656 598.032 108.644 595.5 109.634 592.889C110.629 593.098 118.769 594.75 122.563 593.895C126.003 593.117 130.17 591.17 131.711 587.771C133.218 584.441 131.869 580.336 128.257 579.123C123.246 577.437 115.592 583.133 112.788 586.932C112.622 587.155 111.099 589.788 110.165 591.463C110.565 590.394 110.962 589.361 111.36 588.256C112.161 586.077 112.896 583.876 113.693 581.515C114.039 580.358 114.388 579.193 114.742 578.014C115.117 576.852 115.363 575.579 115.684 574.352C116.366 571.49 116.917 568.557 117.408 565.589C119.32 566.286 126.144 568.658 129.677 568.409C133.196 568.161 137.61 566.871 139.647 563.741C141.642 560.678 140.931 556.416 137.545 554.669C132.845 552.245 124.417 556.713 121.069 560.044C120.861 560.25 118.728 562.911 117.585 564.394C117.865 562.609 118.153 560.827 118.378 559.011C119.03 553.769 119.525 548.442 120.043 543.129C120.2 541.502 120.378 539.882 120.549 538.261C121.226 538.517 129.276 541.513 133.236 541.234C136.755 540.986 141.168 539.695 143.206 536.566C145.2 533.503 144.487 529.239 141.103 527.493C136.404 525.069 127.978 529.538 124.63 532.867C124.378 533.119 121.314 536.951 120.582 537.964C120.96 534.392 121.368 530.835 121.915 527.346C122.661 522.532 123.66 517.849 124.963 513.382C125.278 513.501 133.664 516.666 137.719 516.382C141.238 516.134 145.652 514.843 147.69 511.714C149.684 508.651 148.973 504.389 145.587 502.641C140.887 500.217 132.462 504.686 129.114 508.015C128.853 508.278 125.557 512.403 125.013 513.193C125.091 512.928 125.143 512.642 125.224 512.38C126.676 507.63 128.678 503.21 130.757 499.166C131.959 496.812 133.241 494.629 134.535 492.534C136.036 493.285 142.938 496.634 146.615 496.782C150.139 496.922 154.668 496.123 157.037 493.236C159.357 490.411 159.118 486.095 155.944 483.988C151.538 481.063 142.671 484.578 138.979 487.52C138.778 487.682 136.917 489.534 135.581 490.904C136.18 489.966 136.78 488.989 137.37 488.104C139.582 484.77 141.814 481.857 143.811 479.292C144.959 477.843 146.023 476.555 147.034 475.362C148.892 475.328 156.375 475.101 159.647 473.566C162.838 472.066 166.491 469.27 167.263 465.618C168.017 462.042 165.816 458.32 162.028 457.915C156.771 457.349 150.521 464.553 148.6 468.867C148.435 469.241 146.507 475.367 146.604 475.367C146.604 475.367 146.694 475.365 146.718 475.365C145.722 476.496 144.669 477.718 143.544 479.078C141.487 481.605 139.186 484.477 136.893 487.774C134.593 491.062 132.186 494.699 129.996 498.759C127.796 502.827 125.69 507.214 124.106 512.018C124.088 512.072 124.075 512.131 124.057 512.187C124.084 510.637 124.018 506.302 123.973 505.973C123.366 501.288 119.44 492.597 114.24 491.636C110.493 490.943 107.321 493.879 107.022 497.523C106.718 501.243 109.416 504.967 112.048 507.315C115.014 509.966 123.249 512.531 123.904 512.734C122.437 517.323 121.303 522.148 120.425 527.097C119.921 529.927 119.5 532.792 119.115 535.671C119.095 534.33 119.068 533.132 119.046 532.964C118.438 528.28 114.512 519.591 109.312 518.63C105.564 517.935 102.393 520.872 102.094 524.515C101.788 528.235 104.486 531.96 107.118 534.307C109.787 536.692 116.764 539.02 118.618 539.613C118.481 540.718 118.333 541.821 118.202 542.928C117.567 548.233 116.958 553.531 116.2 558.711C115.936 560.538 115.606 562.323 115.282 564.112C115.264 562.924 115.237 561.92 115.218 561.769C114.611 557.084 110.685 548.393 105.485 547.432C101.737 546.739 98.564 549.675 98.2652 553.319C97.961 557.037 100.659 560.764 103.291 563.111C105.838 565.388 112.258 567.594 114.46 568.309C114.075 570.132 113.691 571.957 113.234 573.706C112.896 574.894 112.653 576.06 112.246 577.233C111.868 578.403 111.495 579.562 111.123 580.71C110.329 582.893 109.522 585.152 108.694 587.263C108.129 588.733 107.562 590.128 106.997 591.53C107.283 589.718 107.769 586.156 107.775 585.854C107.847 582.719 106.732 577.618 104.515 574.033C104.527 573.571 104.502 573.108 104.428 572.649C103.849 569.041 100.458 566.361 96.7748 567.342C91.6646 568.703 88.4228 577.671 88.1816 582.386C88.1672 582.663 88.349 585.699 88.4948 587.612C88.2374 586.5 88.0016 585.418 87.7226 584.277C87.1862 582.017 86.585 579.778 85.9478 577.365C85.5986 576.209 85.2458 575.047 84.8894 573.868C84.5618 572.694 84.065 571.496 83.6546 570.296C82.643 567.533 81.4838 564.781 80.2562 562.035C82.2362 561.562 89.2346 559.776 92.0462 557.62C94.8452 555.475 97.8134 551.96 97.7864 548.229C97.7594 544.574 94.8164 541.41 91.0274 541.821C85.7696 542.391 81.2048 550.767 80.2508 555.39C80.1914 555.678 79.88 559.074 79.745 560.942C78.9944 559.299 78.251 557.653 77.4374 556.013C75.0884 551.282 72.563 546.565 70.0628 541.85C69.296 540.404 68.5508 538.957 67.7984 537.51C68.504 537.349 76.8722 535.408 80.0204 532.991C82.8176 530.846 85.7858 527.331 85.7588 523.599C85.7318 519.945 82.787 516.782 78.9998 517.192C73.742 517.762 69.179 526.138 68.225 530.762C68.153 531.111 67.712 535.995 67.6616 537.244C66.0056 534.057 64.3856 530.866 62.915 527.655C60.881 523.226 59.1296 518.77 57.7526 514.327C58.082 514.253 66.8228 512.264 70.0484 509.792C72.8474 507.646 75.8156 504.132 75.7868 500.399C75.7616 496.744 72.8168 493.582 69.0278 493.992C63.77 494.563 59.207 502.938 58.253 507.562C58.1774 507.925 57.7058 513.182 57.6896 514.14C57.6086 513.877 57.4934 513.611 57.416 513.348C56.0066 508.584 55.2398 503.793 54.7412 499.274C54.446 496.648 54.3128 494.122 54.2354 491.661C55.9004 491.458 63.5036 490.447 66.6518 488.541C69.6704 486.714 73.0058 483.55 73.3892 479.836C73.7636 476.2 71.1842 472.732 67.3736 472.725C62.0852 472.716 56.6294 480.539 55.1732 485.031C55.094 485.276 54.563 487.846 54.203 489.725C54.1868 488.615 54.1472 487.466 54.1526 486.403C54.1598 482.404 54.4118 478.742 54.662 475.5C54.8186 473.659 54.9986 471.996 55.1822 470.443C56.7122 469.39 62.8286 465.075 64.7096 461.988C66.5456 458.977 68.0468 454.631 66.677 451.159C65.3342 447.758 61.4462 445.872 58.0622 447.619C53.3642 450.047 52.1276 459.505 52.9052 464.16C52.9736 464.562 54.7466 470.737 54.8276 470.683C54.8276 470.683 54.9032 470.632 54.9194 470.62C54.7124 472.11 54.509 473.713 54.3218 475.466C53.9996 478.707 53.6648 482.373 53.5712 486.387C53.4668 490.398 53.465 494.759 53.879 499.352C54.2894 503.957 54.9536 508.778 56.282 513.659C56.2964 513.715 56.3198 513.773 56.336 513.827C55.5044 512.518 53.0546 508.942 52.835 508.69C49.7462 505.12 41.6768 500.036 36.8078 502.102C33.3014 503.592 32.2736 507.79 34.034 510.992C35.825 514.267 40.1288 515.885 43.619 516.395Z" fill="#263238"/>
<path d="M134.311 491.552C134.392 491.602 135.999 485.382 136.057 484.979C136.707 480.304 135.216 470.884 130.454 468.584C127.023 466.927 123.187 468.921 121.94 472.356C120.663 475.862 122.28 480.167 124.197 483.127C126.447 486.603 134.306 491.548 134.311 491.552Z" fill="#263238"/>
<path d="M122.289 661H71.5484L65.207 604.659H128.63L122.289 661Z" fill="white" stroke="#263238" stroke-miterlimit="10" stroke-linecap="round" stroke-linejoin="round"/>
<path d="M66.3691 614.982L66.9829 620.44H126.856L127.47 614.982H66.3691Z" fill="#263238"/>
<path d="M125.504 632.45L126.118 626.991H67.7207L68.3345 632.45H125.504Z" fill="#263238"/>
</g>
<defs>
<clipPath id="clip0">
<rect width="819" height="661" fill="white"/>
</clipPath>
</defs>
</svg>
