<svg width="16" height="20" viewBox="0 0 16 20" fill="none" xmlns="http://www.w3.org/2000/svg">
<path d="M8 9.08325C8.75939 9.08325 9.375 8.46764 9.375 7.70825C9.375 6.94886 8.75939 6.33325 8 6.33325C7.24061 6.33325 6.625 6.94886 6.625 7.70825C6.625 8.46764 7.24061 9.08325 8 9.08325Z" fill="#979797"/>
<path d="M8.00032 0.833252C6.06804 0.833155 4.21381 1.5957 2.84063 2.95514C1.46745 4.31459 0.686315 6.16107 0.666992 8.09325C0.666992 13.1166 7.12949 18.7083 7.40449 18.9466C7.57053 19.0886 7.78183 19.1666 8.00032 19.1666C8.21881 19.1666 8.43012 19.0886 8.59616 18.9466C8.91699 18.7083 15.3337 13.1166 15.3337 8.09325C15.3143 6.16107 14.5332 4.31459 13.16 2.95514C11.7868 1.5957 9.93261 0.833155 8.00032 0.833252ZM8.00032 10.9166C7.36578 10.9166 6.74548 10.7284 6.21787 10.3759C5.69026 10.0233 5.27904 9.52227 5.03621 8.93603C4.79338 8.34978 4.72984 7.70469 4.85364 7.08234C4.97743 6.45998 5.283 5.88831 5.73169 5.43962C6.18038 4.99092 6.75205 4.68536 7.37441 4.56157C7.99677 4.43777 8.64185 4.50131 9.2281 4.74414C9.81435 4.98697 10.3154 5.39819 10.668 5.9258C11.0205 6.4534 11.2087 7.0737 11.2087 7.70825C11.2087 8.55915 10.8706 9.37521 10.269 9.97688C9.66728 10.5786 8.85123 10.9166 8.00032 10.9166Z" fill="#979797"/>
</svg>
