<svg width="36" height="36" viewBox="0 0 36 36" fill="none" xmlns="http://www.w3.org/2000/svg">
<g clip-path="url(#clip0)">
<path d="M31.4751 35.9999C31.1817 35.9999 30.9438 35.7621 30.9438 35.4686V33.5752C30.9438 33.2818 31.1817 33.0439 31.4751 33.0439C31.7686 33.0439 32.0064 33.2818 32.0064 33.5752V35.4686C32.0064 35.762 31.7685 35.9999 31.4751 35.9999Z" fill="#C8C8C8"/>
<path d="M3.72709 35.9999C3.43361 35.9999 3.1958 35.7621 3.1958 35.4686V33.5752C3.1958 33.2818 3.43361 33.0439 3.72709 33.0439C4.02058 33.0439 4.25839 33.2818 4.25839 33.5752V35.4686C4.25839 35.762 4.02058 35.9999 3.72709 35.9999Z" fill="#C8C8C8"/>
<path d="M32.9658 10.4605V16.0547L18.0003 16.9505L2.51904 16.0547V10.4605C2.51904 7.3195 5.06501 4.77283 8.20673 4.77283H27.2781C30.4191 4.77283 32.9658 7.3195 32.9658 10.4605Z" fill="#EDF4FF"/>
<path d="M27.2777 4.77271H25.4946C28.6359 4.77271 31.1825 7.31923 31.1825 10.4605V16.0546H32.9655V10.4605C32.9655 7.31923 30.4189 4.77271 27.2777 4.77271Z" fill="white"/>
<path d="M10.1537 4.77368H13.6269C10.7834 4.77368 8.46981 7.08658 8.46981 9.93007V16.5868C8.46981 16.8801 8.23179 17.1181 7.93852 17.1181C7.64525 17.1181 7.40723 16.8801 7.40723 16.5868V9.93007C7.40723 7.78647 8.49815 5.89223 10.1537 4.77368Z" fill="white"/>
<path d="M17.2104 4.77283H18.273V16.586C18.273 16.8793 18.035 17.1173 17.7417 17.1173C17.4478 17.1173 17.2104 16.8793 17.2104 16.586V4.77283Z" fill="white"/>
<path d="M28.1049 9.92921V11.4105C28.1049 11.7044 27.8669 11.9418 27.5736 11.9418C27.2804 11.9418 27.0423 11.7044 27.0423 11.4105V9.92921C27.0423 7.08573 24.7287 4.77283 21.8853 4.77283H25.3585C27.014 5.89138 28.1049 7.78562 28.1049 9.92921Z" fill="white"/>
<path d="M20.6859 7.27083C20.9898 7.27083 21.2362 7.02449 21.2362 6.72062C21.2362 6.41675 20.9898 6.17041 20.6859 6.17041C20.3821 6.17041 20.1357 6.41675 20.1357 6.72062C20.1357 7.02449 20.3821 7.27083 20.6859 7.27083Z" fill="white"/>
<path d="M14.2245 11.4108C14.5284 11.4108 14.7747 11.1645 14.7747 10.8606C14.7747 10.5568 14.5284 10.3104 14.2245 10.3104C13.9207 10.3104 13.6743 10.5568 13.6743 10.8606C13.6743 11.1645 13.9207 11.4108 14.2245 11.4108Z" fill="white"/>
<path d="M21.1768 16.0546L22.0683 17.0749L22.9598 16.0546L23.6686 14.8217L22.9598 13.4131H21.1768L21.1768 16.0546Z" fill="white"/>
<path d="M20.413 10.8606H22.196L22.9598 13.413H20.413C20.1506 13.413 19.938 13.2003 19.938 12.938V11.3355C19.9381 11.0733 20.1506 10.8606 20.413 10.8606Z" fill="white"/>
<path d="M22.9595 32.098L15.3193 32.0977L12.1039 31.3897L8.88782 32.0977L1.80652 32.098C1.5442 32.098 1.33154 31.8853 1.33154 31.623V18.6345L12.1455 18L22.9595 18.6345L23.4555 25.3662L22.9595 32.098Z" fill="white"/>
<path d="M21.1768 18.6345V32.098H22.9598L23.4559 25.3662L22.9598 18.6345H21.1768Z" fill="#C8C5C9"/>
<path d="M22.9597 16.0546H0.871461C0.609144 16.0546 0.396484 16.2672 0.396484 16.5295V18.1596C0.396484 18.4219 0.609144 18.6345 0.871461 18.6345H22.9596L23.4556 17.3445L22.9597 16.0546Z" fill="#C8C8C8"/>
<path d="M21.1768 16.0546V18.6345H22.9598L23.4559 17.3445L22.9598 16.0546H21.1768Z" fill="white"/>
<path d="M22.9595 32.098H34.1068C34.3691 32.098 34.5818 31.8854 34.5818 31.6231V13.4131L28.7706 12.7606L22.9595 13.4131V32.098Z" fill="white"/>
<path d="M32.7992 13.4131V31.6231C32.7992 31.8854 32.5865 32.098 32.3242 32.098H34.1072C34.3696 32.098 34.5822 31.8854 34.5822 31.6231V13.4131L33.3459 13.2743L32.7992 13.4131Z" fill="#C8C5C9"/>
<path d="M22.1957 10.8606H35.1285C35.3908 10.8606 35.6034 11.0733 35.6034 11.3356V12.9381C35.6034 13.2004 35.3908 13.4131 35.1285 13.4131H22.1957C21.9334 13.4131 21.7207 13.2004 21.7207 12.9381V11.3356C21.7208 11.0733 21.9334 10.8606 22.1957 10.8606Z" fill="#C8C8C8"/>
<path d="M35.1287 10.8606H33.3457C33.608 10.8606 33.8207 11.0733 33.8207 11.3356V12.9381C33.8207 13.2004 33.608 13.4131 33.3457 13.4131H35.1287C35.391 13.4131 35.6037 13.2004 35.6037 12.9381V11.3356C35.6036 11.0733 35.391 10.8606 35.1287 10.8606Z" fill="white"/>
<path d="M15.3197 25.8015V32.0977H8.88818V25.8015C8.88818 25.5359 9.10424 25.3198 9.3706 25.3198H14.838C15.1043 25.3198 15.3197 25.5359 15.3197 25.8015Z" fill="#FFCDF4"/>
<path d="M14.8376 25.3198H13.1157C13.3819 25.3198 13.5976 25.5355 13.5976 25.8017V32.0979H15.3195V25.8017C15.3195 25.5356 15.1037 25.3198 14.8376 25.3198Z" fill="#FAD0F1"/>
<path d="M10.3658 22.9726H3.96791C3.7216 22.9726 3.52197 22.7729 3.52197 22.5266V21.2472C3.52197 21.0009 3.7216 20.8013 3.96791 20.8013H10.3658C10.6121 20.8013 10.8117 21.0009 10.8117 21.2472V22.5266C10.8117 22.7729 10.6121 22.9726 10.3658 22.9726Z" fill="white"/>
<path d="M10.3659 20.8014H8.89941C9.14572 20.8014 9.34535 21.001 9.34535 21.2473V22.5268C9.34535 22.7731 9.14572 22.9727 8.89941 22.9727H10.3659C10.6122 22.9727 10.8119 22.7731 10.8119 22.5268V21.2473C10.8119 21.001 10.6122 20.8014 10.3659 20.8014Z" fill="white"/>
<path d="M20.2403 22.9726H13.8424C13.5961 22.9726 13.3965 22.7729 13.3965 22.5266V21.2472C13.3965 21.0009 13.5961 20.8013 13.8424 20.8013H20.2403C20.4866 20.8013 20.6862 21.0009 20.6862 21.2472V22.5266C20.6862 22.7729 20.4866 22.9726 20.2403 22.9726Z" fill="white"/>
<path d="M20.24 20.8014H18.7734C19.0197 20.8014 19.2194 21.001 19.2194 21.2473V22.5268C19.2194 22.7731 19.0197 22.9727 18.7734 22.9727H20.24C20.4863 22.9727 20.6859 22.7731 20.6859 22.5268V21.2473C20.6859 21.001 20.4863 20.8014 20.24 20.8014Z" fill="white"/>
<path d="M6.05348 27.4911H3.96791C3.7216 27.4911 3.52197 27.2915 3.52197 27.0452V25.7658C3.52197 25.5194 3.7216 25.3198 3.96791 25.3198H6.05348C6.29979 25.3198 6.49941 25.5194 6.49941 25.7658V27.0452C6.49941 27.2914 6.29972 27.4911 6.05348 27.4911Z" fill="white"/>
<path d="M6.0535 25.3198H4.58691C4.83322 25.3198 5.03285 25.5194 5.03285 25.7658V27.0452C5.03285 27.2915 4.83322 27.4911 4.58691 27.4911H6.05343C6.29974 27.4911 6.49936 27.2915 6.49936 27.0452V25.7658C6.49943 25.5195 6.29974 25.3198 6.0535 25.3198Z" fill="white"/>
<path d="M20.2403 27.4911H18.2729C17.9799 27.4911 17.7422 27.2535 17.7422 26.9604V25.8506C17.7422 25.5575 17.9798 25.3198 18.2729 25.3198H20.2403C20.4866 25.3198 20.6862 25.5194 20.6862 25.7658V27.0452C20.6862 27.2914 20.4866 27.4911 20.2403 27.4911Z" fill="white"/>
<path d="M20.24 25.3198H18.7734C19.0197 25.3198 19.2194 25.5194 19.2194 25.7658V27.0452C19.2194 27.2915 19.0197 27.4911 18.7734 27.4911H20.24C20.4863 27.4911 20.6859 27.2915 20.6859 27.0452V25.7658C20.6859 25.5195 20.4863 25.3198 20.24 25.3198Z" fill="white"/>
<path d="M31.9956 18.5358H25.5978C25.3515 18.5358 25.1519 18.3362 25.1519 18.0899V16.8104C25.1519 16.5641 25.3515 16.3645 25.5978 16.3645H31.9956C32.2419 16.3645 32.4416 16.5641 32.4416 16.8104V18.0899C32.4416 18.3362 32.2419 18.5358 31.9956 18.5358Z" fill="white"/>
<path d="M31.9958 16.3645H30.5293C30.7756 16.3645 30.9752 16.5641 30.9752 16.8104V18.0899C30.9752 18.3362 30.7756 18.5358 30.5293 18.5358H31.9958C32.2421 18.5358 32.4417 18.3362 32.4417 18.0899V16.8104C32.4417 16.5641 32.2421 16.3645 31.9958 16.3645Z" fill="white"/>
<path d="M27.1875 23.0543H25.5978C25.3515 23.0543 25.1519 22.8547 25.1519 22.6084V21.329C25.1519 21.0827 25.3515 20.8831 25.5978 20.8831H27.1875C27.4338 20.8831 27.6334 21.0827 27.6334 21.329V22.6084C27.6334 22.8546 27.4337 23.0543 27.1875 23.0543Z" fill="white"/>
<path d="M27.1872 20.8831H25.7207C25.967 20.8831 26.1666 21.0827 26.1666 21.329V22.6084C26.1666 22.8547 25.967 23.0543 25.7207 23.0543H27.1872C27.4335 23.0543 27.6331 22.8547 27.6331 22.6084V21.329C27.6331 21.0828 27.4335 20.8831 27.1872 20.8831Z" fill="white"/>
<path d="M31.9959 23.0543H30.4396C30.1933 23.0543 29.9937 22.8547 29.9937 22.6084V21.329C29.9937 21.0827 30.1933 20.8831 30.4396 20.8831H31.9959C32.2422 20.8831 32.4418 21.0827 32.4418 21.329V22.6084C32.4418 22.8546 32.2422 23.0543 31.9959 23.0543Z" fill="white"/>
<path d="M31.9958 20.8831H30.5293C30.7756 20.8831 30.9752 21.0827 30.9752 21.329V22.6084C30.9752 22.8547 30.7756 23.0543 30.5293 23.0543H31.9958C32.2421 23.0543 32.4417 22.8547 32.4417 22.6084V21.329C32.4417 21.0828 32.2421 20.8831 31.9958 20.8831Z" fill="white"/>
<path d="M27.1875 27.4911H25.5978C25.3515 27.4911 25.1519 27.2915 25.1519 27.0452V25.7658C25.1519 25.5194 25.3515 25.3198 25.5978 25.3198H27.1875C27.4338 25.3198 27.6334 25.5194 27.6334 25.7658V27.0452C27.6334 27.2914 27.4337 27.4911 27.1875 27.4911Z" fill="white"/>
<path d="M27.1872 25.3198H25.7207C25.967 25.3198 26.1666 25.5194 26.1666 25.7658V27.0452C26.1666 27.2915 25.967 27.4911 25.7207 27.4911H27.1872C27.4335 27.4911 27.6331 27.2915 27.6331 27.0452V25.7658C27.6331 25.5195 27.4335 25.3198 27.1872 25.3198Z" fill="white"/>
<path d="M31.9959 27.4911H30.4396C30.1933 27.4911 29.9937 27.2915 29.9937 27.0452V25.7658C29.9937 25.5194 30.1933 25.3198 30.4396 25.3198H31.9959C32.2422 25.3198 32.4418 25.5194 32.4418 25.7658V27.0452C32.4418 27.2914 32.2422 27.4911 31.9959 27.4911Z" fill="white"/>
<path d="M31.9958 25.3198H30.5293C30.7756 25.3198 30.9752 25.5194 30.9752 25.7658V27.0452C30.9752 27.2915 30.7756 27.4911 30.5293 27.4911H31.9958C32.2421 27.4911 32.4417 27.2915 32.4417 27.0452V25.7658C32.4417 25.5195 32.2421 25.3198 31.9958 25.3198Z" fill="white"/>
<path d="M29.8995 33.5754L28.9496 32.6255C28.7362 32.4121 28.7362 32.066 28.9496 31.8525L30.2179 30.5843C30.4313 30.3708 30.7774 30.3708 30.9909 30.5843L31.9408 31.5342C32.5044 32.0978 32.5044 33.0117 31.9408 33.5754C31.3771 34.139 30.4632 34.139 29.8995 33.5754Z" fill="#FFE07D"/>
<path d="M31.9408 31.5342L30.9909 30.5843C30.7775 30.3708 30.4314 30.3708 30.2179 30.5843L29.7632 31.039C29.8879 31.0491 30.0098 31.1015 30.1052 31.197L30.4742 31.5342C31.0379 32.0978 31.0379 33.0117 30.4742 33.5753C30.3863 33.6632 30.2892 33.7358 30.1869 33.7963C30.7404 34.1236 31.465 34.0511 31.9408 33.5753C32.5044 33.0117 32.5044 32.0978 31.9408 31.5342Z" fill="#FFD064"/>
<path d="M5.38928 33.5754L6.33916 32.6255C6.5526 32.4121 6.5526 32.066 6.33916 31.8525L5.07092 30.5843C4.85749 30.3708 4.51144 30.3708 4.29793 30.5843L3.34804 31.5342C2.78438 32.0978 2.78438 33.0117 3.34804 33.5754C3.91171 34.139 4.82561 34.139 5.38928 33.5754Z" fill="#FFE07D"/>
<path d="M6.33897 31.8525L5.07074 30.5843C4.8573 30.3708 4.51125 30.3708 4.29774 30.5843L3.85457 31.0274C4.01169 31.0121 4.1742 31.0645 4.29463 31.1848L4.87246 31.8525C5.0859 32.0659 5.0859 32.412 4.87246 32.6255L3.92258 33.5754C3.83467 33.6633 3.73755 33.7358 3.63525 33.7963C4.18879 34.1237 4.91333 34.0511 5.38909 33.5754L6.33897 32.6255C6.55241 32.4121 6.55241 32.0659 6.33897 31.8525Z" fill="#FFD064"/>
<path d="M11.5728 25.3198H12.6353V32.0977H11.5728V25.3198Z" fill="#FFCEF5"/>
<path d="M14.9759 1.35926L15.4283 0.906955C15.6357 0.699396 15.6357 0.363051 15.4283 0.155563C15.2207 -0.0518543 14.8843 -0.0518543 14.6769 0.155563L14.2246 0.607871L13.7722 0.155563C13.5647 -0.0518543 13.2283 -0.0518543 13.0209 0.155563C12.8134 0.363122 12.8134 0.699467 13.0209 0.906955L13.4732 1.35926L13.0209 1.81157C12.8134 2.01913 12.8134 2.35548 13.0209 2.56296C13.1246 2.66667 13.2606 2.71853 13.3966 2.71853C13.5325 2.71853 13.6685 2.66667 13.7723 2.56296L14.2246 2.11065L14.6769 2.56296C14.7807 2.66667 14.9167 2.71853 15.0527 2.71853C15.1886 2.71853 15.3246 2.66667 15.4284 2.56296C15.6359 2.3554 15.6359 2.01906 15.4284 1.81157L14.9759 1.35926Z" fill="white"/>
</g>
<defs>
<clipPath id="clip0">
<rect width="36" height="36" fill="white"/>
</clipPath>
</defs>
</svg>
